# xmcd CD database file
#
# Track frame offsets:
#	150
#	43137
#	85164
#	111732
#	137976
#	185755
#	231729
#
# Disc length: 3626 seconds
#
# Revision: 0
# Processed by: cddbd v1.5.2PL0 Copyright (c) Steve Scherf et al.
# Submitted via: CDex 1.70beta2
#
DISCID=6f0e2807
DTITLE=Da' Namaste - Magical Healing mantras
DYEAR=1900
DGENRE=New Age
TTITLE0=Shiva Shambho
TTITLE1=Govindam
TTITLE2=Jay Sri Krishna
TTITLE3=Aum Sri Ram
TTITLE4=Java Shiva Shankara
TTITLE5=Govinda Jaya Jaya
TTITLE6=Gayatri Mantra
EXTD=
EXTT0=
EXTT1=
EXTT2=
EXTT3=
EXTT4=
EXTT5=
EXTT6=
PLAYORDER=
